<svg xmlns="http://www.w3.org/2000/svg"  viewBox="0 0 48 48" width="480px" height="480px"><path fill="#3ddab4" d="M38.963,10.927l-2.828,2.828c2.406,2.856,3.723,6.427,3.723,10.205c0,4.24-1.651,8.228-4.65,11.226 c-2.999,2.999-6.985,4.65-11.226,4.65c-0.599,0-1.191-0.042-1.779-0.107l-1.092,3.878c0.944,0.136,1.899,0.229,2.87,0.229 c5.309,0,10.3-2.067,14.054-5.822c3.754-3.754,5.822-8.745,5.822-14.054C43.858,19.114,42.119,14.544,38.963,10.927z"/><polygon fill="#3ddab4" points="31.303,6.745 33.648,20.242 44.801,9.089"/><path fill="#00b569" d="M38.963,10.927l-2.828,2.828c0.623,0.74,1.17,1.53,1.643,2.357l2.892-2.892 C40.154,12.424,39.595,11.652,38.963,10.927z"/><g><polygon fill="#3ddab4" points="17.404,41.919 15.059,28.421 3.906,39.574"/><path fill="#3ddab4" d="M9.928,9.905C6.173,13.659,4.106,18.65,4.106,23.96c0,5.309,2.067,10.3,5.822,14.054 c0.01,0.01,0.02,0.018,0.03,0.028l2.829-2.829c-0.01-0.01-0.021-0.018-0.031-0.028c-2.999-2.998-4.65-6.985-4.65-11.226 s1.651-8.228,4.65-11.227c3.095-3.095,7.161-4.642,11.226-4.642c0.901,0,1.801,0.089,2.691,0.241l1.092-3.879 C21.502,3.249,14.767,5.065,9.928,9.905z"/><path fill="#00b569" d="M9.928,38.014c0.01,0.01,0.02,0.018,0.03,0.028l2.829-2.829c-0.01-0.01-0.021-0.018-0.031-0.028 c-0.758-0.758-1.428-1.58-2.009-2.452l-2.858,2.858C8.504,36.44,9.172,37.258,9.928,38.014z"/></g><g><rect width="4" height="56.569" x="22" y="-4.284" fill="#f55376" transform="rotate(-45.001 24 24.001)"/><path fill="#eb0000" d="M11.407,8.579c-0.508,0.416-1.005,0.852-1.479,1.326c-0.48,0.479-0.93,0.98-1.354,1.498 l2.856,2.856c0.411-0.53,0.844-1.045,1.326-1.527c0.476-0.476,0.981-0.902,1.499-1.305L11.407,8.579z"/><path fill="#eb0000" d="M36.514,33.686c-0.405,0.52-0.833,1.026-1.306,1.5c-0.481,0.481-0.996,0.915-1.525,1.325 l2.856,2.855c0.517-0.423,1.018-0.873,1.497-1.353c0.472-0.472,0.917-0.964,1.335-1.473L36.514,33.686z"/></g></svg>