<?xml version="1.0" standalone="no"?>
<!DOCTYPE svg PUBLIC "-//W3C//DTD SVG 20010904//EN"
 "http://www.w3.org/TR/2001/REC-SVG-20010904/DTD/svg10.dtd">
<svg version="1.0" xmlns="http://www.w3.org/2000/svg"
 width="144.000000pt" height="144.000000pt" viewBox="0 0 144.000000 144.000000"
 preserveAspectRatio="xMidYMid meet">

<g transform="translate(0.000000,144.000000) scale(0.100000,-0.100000)"
fill="#000000" stroke="none">
<path d="M556 1272 c-3 -6 -1 -14 5 -17 15 -10 25 3 12 16 -7 7 -13 7 -17 1z"/>
<path d="M620 1266 c0 -9 7 -16 16 -16 17 0 14 22 -4 28 -7 2 -12 -3 -12 -12z"/>
<path d="M687 1273 c-12 -11 -8 -23 8 -23 8 0 15 7 15 15 0 16 -12 20 -23 8z"/>
<path d="M495 1260 c3 -5 8 -10 11 -10 2 0 4 5 4 10 0 6 -5 10 -11 10 -5 0 -7
-4 -4 -10z"/>
<path d="M610 1215 c-9 -11 -16 -12 -31 -2 -26 16 -48 -5 -30 -27 14 -17 7
-36 -14 -36 -19 0 -29 20 -17 32 13 13 4 38 -13 38 -21 0 -28 -19 -14 -36 10
-12 8 -17 -7 -29 -12 -8 -23 -10 -28 -4 -25 23 -58 -10 -36 -36 15 -18 -6 -30
-43 -26 -27 2 -28 1 -25 -31 3 -31 2 -33 -28 -31 -35 3 -53 -20 -34 -42 14
-17 -5 -30 -40 -30 -16 0 -25 -6 -25 -15 0 -10 10 -15 30 -15 20 0 30 -5 30
-15 0 -11 -9 -14 -32 -12 -27 3 -33 0 -33 -17 0 -11 5 -23 10 -26 6 -4 4 -12
-5 -21 -17 -17 -19 -30 -7 -38 5 -3 7 -48 6 -100 -1 -54 2 -98 7 -102 6 -4 6
-11 -2 -20 -18 -22 -3 -45 28 -42 25 3 28 0 26 -26 -1 -17 2 -35 8 -42 7 -8 7
-14 -1 -19 -6 -4 -10 -61 -10 -151 l0 -144 61 -40 c105 -68 253 -110 386 -110
123 0 288 51 388 120 l45 31 0 67 c0 74 -14 138 -36 159 -7 8 -17 20 -21 27
-10 17 -103 66 -124 66 -22 0 -72 67 -66 88 3 9 15 43 26 74 30 82 27 188 -6
188 -10 0 -11 4 -3 19 5 11 10 30 10 42 0 16 5 20 20 16 15 -4 20 0 20 15 0
11 -8 22 -19 25 -13 3 -21 17 -25 44 -5 29 -19 52 -52 85 -54 54 -105 78 -149
70 l-32 -6 2 45 c2 45 -9 57 -31 35 -8 -8 -15 -6 -24 5 -16 19 -24 19 -40 0z
m6 -36 c10 -17 -13 -36 -27 -22 -12 12 -4 33 11 33 5 0 12 -5 16 -11z m64 -9
c0 -11 -7 -20 -15 -20 -8 0 -15 9 -15 20 0 11 7 20 15 20 8 0 15 -9 15 -20z
m-200 -65 c0 -8 -4 -15 -9 -15 -13 0 -22 16 -14 24 11 11 23 6 23 -9z m62 0
c0 -5 -5 -11 -11 -13 -6 -2 -11 4 -11 13 0 9 5 15 11 13 6 -2 11 -8 11 -13z
m68 0 c0 -8 -4 -15 -10 -15 -5 0 -10 7 -10 15 0 8 5 15 10 15 6 0 10 -7 10
-15z m60 -1 c0 -8 -5 -12 -10 -9 -6 4 -8 11 -5 16 9 14 15 11 15 -7z m158 -35
c17 -7 22 -16 22 -43 0 -19 5 -38 10 -41 16 -10 12 -33 -8 -39 -9 -3 -33 -20
-51 -37 -24 -21 -36 -27 -41 -19 -4 7 -29 15 -56 17 -27 3 -47 3 -44 0 4 -4
22 -8 43 -11 44 -5 57 -13 57 -32 0 -8 5 -13 12 -11 7 1 23 -20 37 -46 15 -30
30 -46 38 -43 7 3 13 1 13 -4 0 -6 -9 -10 -19 -10 -23 0 -39 -39 -22 -50 7 -4
13 -17 14 -28 1 -14 8 -22 19 -22 25 0 22 -16 -7 -45 -15 -16 -19 -25 -10 -25
21 0 26 -16 14 -44 -13 -29 -21 -32 -99 -42 l-55 -7 60 -53 c33 -30 56 -54 52
-54 -14 0 -115 90 -149 132 -28 35 -31 47 -33 114 -1 56 -6 78 -18 87 -22 16
-49 120 -33 127 6 3 12 36 13 80 2 108 5 130 17 128 11 -1 49 12 91 32 21 9
94 3 133 -11z m-413 -39 c-5 -8 -11 -8 -17 -2 -6 6 -7 16 -3 22 5 8 11 8 17 2
6 -6 7 -16 3 -22z m65 10 c0 -5 -4 -10 -10 -10 -5 0 -10 5 -10 10 0 6 5 10 10
10 6 0 10 -4 10 -10z m-130 -65 c0 -8 -4 -15 -9 -15 -13 0 -22 16 -14 24 11
11 23 6 23 -9z m60 -5 c0 -5 -2 -10 -4 -10 -3 0 -8 5 -11 10 -3 6 -1 10 4 10
6 0 11 -4 11 -10z m-60 -60 c0 -5 -4 -10 -10 -10 -5 0 -10 5 -10 10 0 6 5 10
10 10 6 0 10 -4 10 -10z m540 -9 c0 -12 -39 -25 -48 -16 -7 7 17 25 36 25 6 0
12 -4 12 -9z m-600 -56 c0 -8 -6 -15 -14 -15 -17 0 -28 14 -19 24 12 12 33 6
33 -9z m590 -15 c13 -8 13 -10 -2 -10 -9 0 -20 5 -23 10 -8 13 5 13 25 0z
m-592 -51 c-2 -6 -8 -10 -13 -10 -5 0 -11 4 -13 10 -2 6 4 11 13 11 9 0 15 -5
13 -11z m62 1 c0 -5 -4 -10 -10 -10 -5 0 -10 5 -10 10 0 6 5 10 10 10 6 0 10
-4 10 -10z m-68 -65 c0 -5 -5 -11 -11 -13 -6 -2 -11 4 -11 13 0 9 5 15 11 13
6 -2 11 -8 11 -13z m3 -75 c-5 -8 -11 -8 -17 -2 -6 6 -7 16 -3 22 5 8 11 8 17
2 6 -6 7 -16 3 -22z m65 10 c0 -5 -4 -10 -10 -10 -5 0 -10 5 -10 10 0 6 5 10
10 10 6 0 10 -4 10 -10z m-60 -63 c0 -8 -3 -17 -7 -20 -9 -9 -34 13 -27 24 8
14 34 11 34 -4z m55 4 c3 -5 1 -12 -5 -16 -5 -3 -10 1 -10 9 0 18 6 21 15 7z
m5 -71 c0 -5 -4 -10 -10 -10 -5 0 -10 5 -10 10 0 6 5 10 10 10 6 0 10 -4 10
-10z m540 -301 c0 -5 -7 -9 -15 -9 -15 0 -20 12 -9 23 8 8 24 -1 24 -14z m28
-137 c2 -7 -3 -12 -12 -12 -9 0 -16 7 -16 16 0 17 22 14 28 -4z"/>
<path d="M680 855 c-19 -23 -2 -37 25 -19 25 16 25 34 1 34 -8 0 -19 -7 -26
-15z"/>
<path d="M710 649 c0 -5 5 -7 10 -4 6 3 10 8 10 11 0 2 -4 4 -10 4 -5 0 -10
-5 -10 -11z"/>
<path d="M424 1209 c-10 -17 13 -36 27 -22 12 12 4 33 -11 33 -5 0 -12 -5 -16
-11z"/>
<path d="M360 1200 c0 -5 7 -10 16 -10 8 0 12 5 9 10 -3 6 -10 10 -16 10 -5 0
-9 -4 -9 -10z"/>
<path d="M300 1135 c0 -8 5 -15 10 -15 6 0 10 7 10 15 0 8 -4 15 -10 15 -5 0
-10 -7 -10 -15z"/>
<path d="M355 1140 c-8 -13 3 -30 20 -30 14 0 27 24 18 34 -10 9 -31 7 -38 -4z"/>
<path d="M297 1084 c-14 -15 -6 -34 14 -34 14 0 19 5 17 17 -3 18 -20 27 -31
17z"/>
<path d="M235 1070 c-3 -5 1 -10 9 -10 9 0 16 5 16 10 0 6 -4 10 -9 10 -6 0
-13 -4 -16 -10z"/>
<path d="M230 1005 c0 -8 7 -15 15 -15 8 0 15 7 15 15 0 8 -7 15 -15 15 -8 0
-15 -7 -15 -15z"/>
<path d="M170 940 c0 -5 5 -10 10 -10 6 0 10 5 10 10 0 6 -4 10 -10 10 -5 0
-10 -4 -10 -10z"/>
<path d="M167 884 c-9 -10 2 -24 19 -24 8 0 14 7 14 15 0 15 -21 21 -33 9z"/>
<path d="M164 819 c-8 -14 11 -33 25 -25 16 10 13 36 -3 36 -8 0 -18 -5 -22
-11z"/>
<path d="M167 764 c-14 -15 -6 -34 14 -34 14 0 19 5 17 17 -3 18 -20 27 -31
17z"/>
<path d="M110 750 c0 -5 5 -10 11 -10 5 0 7 5 4 10 -3 6 -8 10 -11 10 -2 0 -4
-4 -4 -10z"/>
<path d="M162 683 c4 -23 32 -23 36 0 2 12 -3 17 -18 17 -15 0 -20 -5 -18 -17z"/>
<path d="M164 629 c-10 -17 13 -36 27 -22 12 12 4 33 -11 33 -5 0 -12 -5 -16
-11z"/>
<path d="M170 556 c0 -9 7 -16 16 -16 17 0 14 22 -4 28 -7 2 -12 -3 -12 -12z"/>
<path d="M225 500 c-4 -7 -3 -16 3 -22 14 -14 45 -2 40 15 -6 16 -34 21 -43 7z"/>
<path d="M170 490 c0 -5 5 -10 10 -10 6 0 10 5 10 10 0 6 -4 10 -10 10 -5 0
-10 -4 -10 -10z"/>
<path d="M230 425 c0 -8 7 -15 15 -15 8 0 15 7 15 15 0 8 -7 15 -15 15 -8 0
-15 -7 -15 -15z"/>
</g>
</svg>
